# xmcd CD database file
#
# Track frame offsets:
#	150
#	25557
#	49410
#	73376
#	104024
#	130807
#	173120
#	194220
#	221521
#	246439
#	275068
#	304345
#
# Disc length: 4405 seconds
#
# Revision: 1
# Processed by: cddbd v1.5.2PL0 Copyright (c) Steve Scherf et al.
# Submitted via: CDex 1.70beta2
#
DISCID=c611330c
DTITLE=Gregor Hilden Organ Trio - First Take
DYEAR=2018
DGENRE=Blues
TTITLE0=8 Counts For Rita
TTITLE1=Stop Leading Me On
TTITLE2=One Step Forward
TTITLE3=Move On Down The Line
TTITLE4=Barbarella's Dream
TTITLE5=Sunday Kind Of Blues
TTITLE6=I Can't Hold Out
TTITLE7=First Take
TTITLE8=Uranus
TTITLE9=Winter Blues
TTITLE10=The Ghetto
TTITLE11=Je T'Aime...Moi Non Plus
EXTD=YEAR: 2018
EXTT0=
EXTT1=
EXTT2=
EXTT3=
EXTT4=
EXTT5=
EXTT6=
EXTT7=
EXTT8=
EXTT9=
EXTT10=
EXTT11=
PLAYORDER=
